<svg xmlns="http://www.w3.org/2000/svg" xmlns:xlink="http://www.w3.org/1999/xlink" width="429"
    height="89.88649697085799" viewBox="0 0 369.5663716814159 77.43362831858407"
    aria-hidden="true" role="img">
    <defs id="svg-def">
        <linearGradient id="svg-gradient" x1="0%" y1="0%" x2="100%" y2="0%"
            gradientTransform="rotate(45)">
            <stop stop-color="#bde56d" offset=" 0" />
            <stop stop-color="#0BD9B6" offset=" 1" />
        </linearGradient>
    </defs>
    <g transform="matrix(0.7743362831858407,0,0,0.7743362831858407,0,0)"
        fill="url(#svg-gradient)">
        <path xmlns="http://www.w3.org/2000/svg"
            d="M50,0C22.386,0,0,22.386,0,50s22.386,50,50,50s50-22.386,50-50S77.614,0,50,0z M50,14.156  c19.799,0,35.844,16.044,35.844,35.844c0,19.799-16.045,35.844-35.844,35.844c-19.799,0-35.844-16.045-35.844-35.844  C14.156,30.201,30.201,14.156,50,14.156z M50,20.125c-16.505,0-29.875,13.37-29.875,29.875S33.495,79.875,50,79.875  S79.875,66.505,79.875,50S66.505,20.125,50,20.125z M50,29.75c11.178,0,20.25,9.072,20.25,20.25S61.178,70.25,50,70.25  S29.75,61.178,29.75,50S38.822,29.75,50,29.75z"></path>
    </g>
    <g
        transform="matrix(1.4718204841659868,0,0,1.4718204841659868,91.62388069314899,0.2409274418655194)"
        fill="#0bd9b6">
        <path
            d="M15.391 11.777000000000001 c5.5273 0 8.9648 4.1016 8.9648 9.1211 c0 5.1367 -3.4375 8.9844 -8.9648 8.9844 l-5.8789 0 l0 10.117 l-5.8594 0 l0 -28.223 l11.738 0 z M14.414 24.98 c2.9297 0 4.2969 -1.6211 4.2969 -4.1602 c0 -2.4414 -1.3672 -4.1406 -4.2969 -4.1406 l-4.9023 0 l0 8.3008 l4.9023 0 z M45.1419140625 40 l-7.3438 -12.422 l-1.6992 0 l0 12.422 l-5.8594 0 l0 -28.223 l10.234 0 c6.3867 0 9.082 3.7695 9.082 8.4375 c0 3.7891 -2.1484 6.25 -5.9766 7.0703 l8.4961 12.715 l-6.9336 0 z M36.0986140625 16.641 l0 6.7383 l3.457 0 c3.125 0 4.3945 -1.3281 4.3945 -3.3594 c0 -2.0117 -1.2695 -3.3789 -4.3945 -3.3789 l-3.457 0 z M57.333940625 40 l0 -28.223 l5.8594 0 l0 28.223 l-5.8594 0 z M83.9400859375 40.39063 c-8.3008 0 -14.434 -5.6641 -14.434 -14.512 c0 -8.8672 6.1328 -14.492 14.434 -14.492 c8.2813 0 14.414 5.625 14.414 14.492 c0 8.8477 -6.1328 14.512 -14.414 14.512 z M83.9400859375 35.0195 c4.8633 0 8.5938 -3.418 8.5938 -9.1406 c0 -5.7031 -3.7305 -9.1016 -8.5938 -9.1016 s-8.5938 3.3984 -8.5938 9.1016 c0 5.7227 3.7305 9.1406 8.5938 9.1406 z M119.6096875 40 l-7.3438 -12.422 l-1.6992 0 l0 12.422 l-5.8594 0 l0 -28.223 l10.234 0 c6.3867 0 9.082 3.7695 9.082 8.4375 c0 3.7891 -2.1484 6.25 -5.9766 7.0703 l8.4961 12.715 l-6.9336 0 z M110.5663875 16.641 l0 6.7383 l3.457 0 c3.125 0 4.3945 -1.3281 4.3945 -3.3594 c0 -2.0117 -1.2695 -3.3789 -4.3945 -3.3789 l-3.457 0 z M131.8017140625 40 l0 -28.223 l5.8594 0 l0 28.223 l-5.8594 0 z M162.275859375 11.777000000000001 l0 5.1563 l-6.6992 0 l0 23.066 l-5.8008 0 l0 -23.066 l-6.7383 0 l0 -5.1563 l19.238 0 z M188.8425546875 11.777000000000001 l-9.2773 14.707 l0 13.516 l-5.8789 0 l0 -13.379 l-9.3359 -14.844 l6.4844 0 l5.7617 9.6094 l5.7813 -9.6094 l6.4648 0 z"></path>
    </g>
</svg>
